HIERARCHY
ROOT Hips
{
	OFFSET 0.000000 0.000000 0.000000
	CHANNELS 6 Xposition Yposition Zposition Zrotation Yrotation Xrotation 
	JOINT LeftUpLeg_virtual
	{
		OFFSET 0.000000 0.000000 0.000000
		CHANNELS 3 Zrotation Yrotation Xrotation
		JOINT LeftUpLeg
		{
			OFFSET 10.205400 -3.823500 0.155100
			CHANNELS 3 Zrotation Yrotation Xrotation
			JOINT LeftLeg
			{
				OFFSET 0.708757 -12.982077 0.567790
				CHANNELS 3 Zrotation Yrotation Xrotation
				JOINT LeftFoot
				{
					OFFSET -0.708756 -10.717838 -2.184338
					CHANNELS 3 Zrotation Yrotation Xrotation
					JOINT LeftToeBase
					{
						OFFSET 0.108149 -7.191104 7.560241
						CHANNELS 3 Zrotation Yrotation Xrotation
						End Site
						{
							OFFSET 0.000000 0.000000 0.000000
						}
					}
				}
			}
		}
	}
	JOINT RightUpLeg_virtual
	{
		OFFSET 0.000000 0.000000 0.000000
		CHANNELS 3 Zrotation Yrotation Xrotation
		JOINT RightUpLeg
		{
			OFFSET -10.205400 -3.823500 0.005500
			CHANNELS 3 Zrotation Yrotation Xrotation
			JOINT RightLeg
			{
				OFFSET -0.708756 -12.982134 0.610632
				CHANNELS 3 Zrotation Yrotation Xrotation
				JOINT RightFoot
				{
					OFFSET 0.708754 -10.717769 -1.945823
					CHANNELS 3 Zrotation Yrotation Xrotation
					JOINT RightToeBase
					{
						OFFSET -0.108140 -7.191069 7.372968
						CHANNELS 3 Zrotation Yrotation Xrotation
						End Site
						{
							OFFSET 0.000000 0.000000 0.000000
						}
					}
				}
			}
		}
	}
	JOINT Spine_virtual
	{
		OFFSET 0.000000 0.000000 0.000000
		CHANNELS 3 Zrotation Yrotation Xrotation
		JOINT Spine
		{
			OFFSET 0.000000 6.876099 0.125700
			CHANNELS 3 Zrotation Yrotation Xrotation
			JOINT Spine1
			{
				OFFSET 0.000000 8.022060 0.146608
				CHANNELS 3 Zrotation Yrotation Xrotation
				JOINT Spine2
				{
					OFFSET 0.000000 9.168068 0.167552
					CHANNELS 3 Zrotation Yrotation Xrotation
					JOINT Neck_virtual
					{
						OFFSET 0.000000 0.000000 0.000000
						CHANNELS 3 Zrotation Yrotation Xrotation
						JOINT Neck
						{
							OFFSET 0.000000 10.314075 0.188496
							CHANNELS 3 Zrotation Yrotation Xrotation
							JOINT Head
							{
								OFFSET 0.000000 7.643700 -2.377400
								CHANNELS 3 Zrotation Yrotation Xrotation
								End Site
								{
									OFFSET 0.000000 0.000000 0.000000
								}
							}
						}
					}
					JOINT LeftShoulder_virtual
					{
						OFFSET 0.000000 0.000000 0.000000
						CHANNELS 3 Zrotation Yrotation Xrotation
						JOINT LeftShoulder
						{
							OFFSET 4.392200 8.824978 0.174984
							CHANNELS 3 Zrotation Yrotation Xrotation
							JOINT LeftArm
							{
								OFFSET 8.771219 -2.981674 -0.026999
								CHANNELS 3 Zrotation Yrotation Xrotation
								JOINT LeftForeArm
								{
									OFFSET 8.512804 0.000000 -0.000000
									CHANNELS 3 Zrotation Yrotation Xrotation
									JOINT LeftHand
									{
										OFFSET 18.484802 0.000000 -0.000000
										CHANNELS 3 Zrotation Yrotation Xrotation
										End Site
										{
											OFFSET 0.000000 0.000000 0.000000
										}
									}
								}
							}
						}
					}
					JOINT RightShoulder_virtual
					{
						OFFSET 0.000000 0.000000 0.000000
						CHANNELS 3 Zrotation Yrotation Xrotation
						JOINT RightShoulder
						{
							OFFSET -4.392200 8.824993 0.141379
							CHANNELS 3 Zrotation Yrotation Xrotation
							JOINT RightArm
							{
								OFFSET -8.771282 -2.981682 -0.094208
								CHANNELS 3 Zrotation Yrotation Xrotation
								JOINT RightForeArm
								{
									OFFSET -8.494598 0.000000 0.000000
									CHANNELS 3 Zrotation Yrotation Xrotation
									JOINT RightHand
									{
										OFFSET -18.483803 0.000000 0.000001
										CHANNELS 3 Zrotation Yrotation Xrotation
										End Site
										{
											OFFSET 0.000000 0.000000 0.000000
										}
									}
								}
							}
						}
					}
				}
			}
		}
	}
}
MOTION
Frames: 10
Frame Time: 0.033333
-25.084188 36.862820 -62.711342 179.883646 52.584998 179.743969 -3.535729 0.869258 11.329879 -12.289296 11.583020 -29.466922 21.665944 6.542400 15.841200 -14.306913 1.447199 13.692412 0.000000 0.000000 0.000000 2.311802 3.128240 11.140226 -4.606914 -7.249898 -24.682323 -9.932415 3.497573 15.025542 17.488662 4.625644 24.462669 0.000000 0.000000 0.000000 0.693065 4.843709 0.281573 0.370131 -2.537738 -11.855944 -0.838626 -2.906189 14.910670 -0.006485 0.005153 -0.021907 -1.162314 -0.512462 19.704940 2.578873 -10.688406 17.743395 0.000000 0.000000 0.000000 0.551700 0.242889 15.758411 -15.459232 -17.014288 10.509841 -55.128707 6.728489 2.213400 7.747860 -29.654827 6.264694 0.000000 0.000000 0.000000 -3.901655 2.015250 15.447893 14.845445 -1.657219 -1.015753 65.442085 -23.931697 13.415851 -5.829719 34.955170 -5.021915 0.000000 0.000000 0.000000 
-25.032438 36.857674 -62.714611 179.749228 54.940064 179.677415 -3.534749 1.100775 11.360707 -11.927606 12.796352 -29.348479 21.756184 7.852301 16.826543 -14.767825 0.967349 13.345449 0.000000 0.000000 0.000000 2.021936 3.465996 11.201317 -4.740353 -9.666114 -23.226606 -9.153137 3.698427 16.535661 16.859618 4.703803 23.029888 0.000000 0.000000 0.000000 0.442596 5.293084 -0.239431 0.450603 -3.345505 -12.463695 -0.847163 -2.890510 15.085567 0.018686 0.069414 -0.033816 -1.154818 -0.398248 19.936199 2.073578 -10.784505 18.019154 0.000000 0.000000 0.000000 0.615894 0.317342 15.887124 -15.614545 -16.803020 9.902278 -53.891682 5.279396 1.317204 7.566261 -28.108791 6.094791 0.000000 0.000000 0.000000 -3.727349 2.091567 15.570883 15.861714 -1.816539 -1.662701 63.458523 -23.073188 11.409008 -5.671406 35.256876 -4.877671 0.000000 0.000000 0.000000 
-24.956499 36.842278 -62.719532 179.643496 57.498957 179.588582 -3.505347 1.349194 11.619092 -11.647740 14.085477 -29.394569 21.815856 8.690782 18.108472 -14.922003 0.416498 12.145896 0.000000 0.000000 0.000000 1.781591 3.860373 11.262669 -5.279132 -12.096906 -21.822145 -8.377012 3.829225 17.696103 16.483741 4.688161 21.815962 0.000000 0.000000 0.000000 0.206435 5.537260 -0.767748 0.507247 -3.855012 -13.228525 -0.765365 -2.737041 15.169606 0.083802 -0.017947 -0.008801 -1.125173 -0.173391 20.069324 1.640972 -10.670472 18.341274 0.000000 0.000000 0.000000 0.666513 0.486335 15.964884 -15.902601 -16.443021 9.375311 -52.772377 3.858611 0.427067 7.389752 -27.492755 5.940038 0.000000 0.000000 0.000000 -3.678916 2.188913 15.716436 16.903093 -1.779591 -2.254903 61.375452 -21.693089 9.962472 -5.592354 35.631208 -5.000828 0.000000 0.000000 0.000000 
-24.834097 36.843159 -62.660755 179.849358 60.034590 179.942304 -3.370211 1.406394 11.633979 -11.228365 15.288497 -29.114720 21.956275 9.139449 19.132261 -14.888166 -0.228611 10.969422 0.000000 0.000000 0.000000 1.666573 4.051002 11.226501 -5.956089 -14.405542 -20.706335 -7.966653 3.271766 18.774739 14.908396 3.431235 23.067308 0.000000 0.000000 0.000000 0.080915 5.564398 -1.394648 0.575259 -4.333360 -14.160225 -0.591349 -2.628245 15.264499 0.015749 0.069314 0.033320 -1.027655 -0.062490 20.172810 1.305837 -10.460949 18.686670 0.000000 0.000000 0.000000 0.802702 0.562299 16.046790 -16.189667 -15.934637 8.759252 -51.714449 2.602604 -0.516414 7.078615 -28.068328 5.812064 0.000000 0.000000 0.000000 -3.467458 2.320967 15.807667 17.845980 -1.798455 -2.715986 59.399963 -20.000711 8.744427 -5.184386 36.372158 -4.898187 0.000000 0.000000 0.000000 
-24.668215 36.858231 -62.450676 179.508723 62.355392 179.589770 -3.501382 0.947652 11.941846 -10.651074 16.453815 -28.726317 22.079553 9.206414 19.683307 -14.689961 -0.720033 10.485537 0.000000 0.000000 0.000000 1.771868 4.442191 11.388117 -6.962863 -16.636293 -19.171486 -8.523311 2.682312 20.050884 12.681949 1.457007 24.239279 0.000000 0.000000 0.000000 -0.170346 5.721282 -1.815316 0.480930 -4.869044 -14.986513 -0.502535 -2.685763 15.434380 0.027654 -0.035782 -0.007645 -0.810661 -0.115124 20.272061 1.065432 -10.098996 19.141820 0.000000 0.000000 0.000000 1.053079 0.569237 16.175257 -16.385967 -15.444308 8.117819 -50.866878 1.631946 -1.102091 6.811521 -29.721698 5.586856 0.000000 0.000000 0.000000 -3.252666 2.282993 15.875576 18.520478 -1.516349 -2.994291 57.673393 -18.161061 8.507865 -4.849456 37.714891 -4.884279 0.000000 0.000000 0.000000 
-24.473833 36.866524 -62.043896 179.128295 64.589547 179.250146 -3.519953 0.583569 12.146619 -9.895009 17.749047 -28.457240 21.926652 8.388430 19.663532 -14.375586 -1.102021 10.377537 0.000000 0.000000 0.000000 1.815598 4.451268 11.586267 -8.036106 -18.503414 -17.663404 -8.877689 2.308367 20.399373 11.584948 0.567659 24.009293 0.000000 0.000000 0.000000 -0.341700 5.638749 -2.045067 0.402275 -5.389406 -15.838124 -0.370675 -2.750022 15.419632 0.048558 0.053759 -0.041011 -0.580149 -0.155735 20.360287 1.092668 -9.548465 19.553563 0.000000 0.000000 0.000000 1.312754 0.511547 16.331022 -16.369701 -14.923844 7.486930 -49.938016 0.972003 -1.458823 6.454982 -32.321992 5.673128 0.000000 0.000000 0.000000 -3.102042 2.291218 16.015986 18.925788 -1.351487 -3.174244 56.293559 -16.305017 8.954211 -4.450588 39.572962 -5.091162 0.000000 0.000000 0.000000 
-24.232124 36.887043 -61.476227 178.889621 67.374147 179.130167 -3.529046 0.599944 12.445954 -9.053868 19.391052 -28.121895 21.490261 6.686751 19.168205 -13.917398 -1.174814 10.488918 0.000000 0.000000 0.000000 1.892743 4.443996 11.559153 -8.522819 -19.853062 -16.612912 -8.764529 1.614521 20.125668 11.039256 0.332006 23.230932 0.000000 0.000000 0.000000 -0.379257 5.525817 -2.194521 0.386361 -5.589467 -16.671896 -0.194883 -2.761977 15.476377 0.057221 -0.031182 -0.003949 -0.406032 -0.079916 20.341999 1.215403 -8.986407 19.996239 0.000000 0.000000 0.000000 1.499315 0.611966 16.393128 -16.228335 -14.345038 6.965394 -49.022221 0.529917 -1.656512 5.986614 -35.227739 6.056978 0.000000 0.000000 0.000000 -3.066342 2.344922 16.029225 19.028263 -0.932547 -3.225379 55.340153 -14.373132 9.741209 -4.180695 41.901080 -5.377293 0.000000 0.000000 0.000000 
-23.981966 36.898293 -60.759861 178.802850 70.200575 179.047890 -3.373159 0.636905 12.782836 -7.938083 21.044699 -27.544741 21.133382 5.251656 18.471646 -13.688527 -1.134896 10.697750 0.000000 0.000000 0.000000 2.005171 4.353927 11.405738 -8.553908 -20.663762 -15.853824 -8.549226 0.915912 19.328341 10.652734 0.349446 22.246029 0.000000 0.000000 0.000000 -0.336990 5.551672 -2.224371 0.447942 -5.632974 -17.381030 -0.053457 -2.726127 15.502094 0.006557 0.078723 0.001195 -0.225691 -0.178590 20.239469 1.381906 -8.364111 20.425097 0.000000 0.000000 0.000000 1.678645 0.548799 16.370051 -15.974506 -13.906151 6.436019 -48.181336 0.150841 -1.888647 5.674638 -38.177520 6.299426 0.000000 0.000000 0.000000 -2.938489 2.313777 16.056767 18.944305 -0.669743 -3.150212 54.725873 -12.665533 10.665132 -3.968475 44.229921 -5.811408 0.000000 0.000000 0.000000 
-23.712040 36.897079 -59.984222 178.869390 72.869342 179.253889 -3.102740 0.537472 12.907563 -6.644869 22.595400 -26.726752 20.832586 4.585170 17.728726 -13.682470 -0.833882 11.159735 0.000000 0.000000 0.000000 1.978301 4.059511 11.203476 -8.219315 -19.620381 -15.249372 -7.563716 1.457140 17.666306 11.372822 1.361356 20.719435 0.000000 0.000000 0.000000 -0.310861 5.438228 -2.369262 0.532150 -5.583847 -17.964144 0.094639 -2.756581 15.502627 0.029739 0.138410 0.018081 -0.146640 -0.177456 20.153095 1.562098 -7.794697 20.954612 0.000000 0.000000 0.000000 1.739513 0.553959 16.377813 -15.679737 -13.526373 5.954648 -47.403261 -0.195212 -2.163121 5.242459 -40.780245 6.780105 0.000000 0.000000 0.000000 -2.911786 2.351911 16.119962 18.644900 -0.314312 -3.032807 54.523187 -11.189760 11.344394 -3.854358 46.302505 -6.024061 0.000000 0.000000 0.000000 
-23.416107 36.862747 -59.146233 178.422682 74.939811 179.077834 -2.791157 0.311485 12.751991 -5.143045 23.885086 -25.621161 20.488081 4.240782 16.796687 -13.706952 -0.191355 11.744121 0.000000 0.000000 0.000000 1.922926 3.863014 11.200692 -8.359842 -16.225867 -14.373424 -6.265176 5.854223 15.994858 12.949274 3.259323 17.351397 0.000000 0.000000 0.000000 -0.392145 5.117964 -2.800066 0.459097 -5.480198 -18.210198 0.126075 -2.809917 15.520160 0.056060 0.127065 -0.014045 -0.129763 -0.097029 20.217491 1.755779 -7.179267 21.682137 0.000000 0.000000 0.000000 1.779501 0.553455 16.401243 -15.370016 -13.262685 5.634533 -46.872207 -0.464271 -2.429289 5.055125 -42.972330 7.154454 0.000000 0.000000 0.000000 -2.949243 2.348638 16.180146 18.368781 0.068000 -2.830231 54.649665 -9.942817 11.896577 -3.827891 47.967739 -6.202722 0.000000 0.000000 0.000000 
